<?xml version="1.0" encoding="UTF-8" standalone="no"?>
<svg
   xmlns:dc="http://purl.org/dc/elements/1.1/"
   xmlns:cc="http://creativecommons.org/ns#"
   xmlns:rdf="http://www.w3.org/1999/02/22-rdf-syntax-ns#"
   xmlns:svg="http://www.w3.org/2000/svg"
   xmlns="http://www.w3.org/2000/svg"
   xmlns:sodipodi="http://sodipodi.sourceforge.net/DTD/sodipodi-0.dtd"
   xmlns:inkscape="http://www.inkscape.org/namespaces/inkscape"
   width="16"
   height="16"
   viewBox="0 0 16 16"
   fill="currentColor"
   version="1.1"
   id="svg4"
   sodipodi:docname="bug_closed.svg"
   inkscape:version="1.0.2-2 (e86c870879, 2021-01-15)">
  <metadata
     id="metadata10">
    <rdf:RDF>
      <cc:Work
         rdf:about="">
        <dc:format>image/svg+xml</dc:format>
        <dc:type
           rdf:resource="http://purl.org/dc/dcmitype/StillImage" />
        <dc:title />
      </cc:Work>
    </rdf:RDF>
  </metadata>
  <defs
     id="defs8" />
  <sodipodi:namedview
     pagecolor="#ffffff"
     bordercolor="#666666"
     borderopacity="1"
     objecttolerance="10"
     gridtolerance="10"
     guidetolerance="10"
     inkscape:pageopacity="0"
     inkscape:pageshadow="2"
     inkscape:window-width="3440"
     inkscape:window-height="1377"
     id="namedview6"
     showgrid="false"
     inkscape:zoom="31.5"
     inkscape:cx="11.447205"
     inkscape:cy="15.226943"
     inkscape:window-x="-8"
     inkscape:window-y="-8"
     inkscape:window-maximized="1"
     inkscape:current-layer="svg4"
     inkscape:document-rotation="0" />
  <path
     fill-rule="evenodd"
     clip-rule="evenodd"
     d="M10.877 4.5v-.582a2.918 2.918 0 1 0-5.836 0V4.5h-.833L2.545 2.829l-.593.59 1.611 1.619-.019.049a8.03 8.03 0 0 0-.503 2.831c0 .196.007.39.02.58l.003.045H1v.836h2.169l.006.034c.172.941.504 1.802.954 2.531l.034.055L2.2 13.962l.592.592 1.871-1.872.058.066c.868.992 2.002 1.589 3.238 1.589 1.218 0 2.336-.579 3.199-1.544l.057-.064 1.91 1.92.593-.591-1.996-2.006.035-.056c.467-.74.81-1.619.986-2.583l.006-.034h2.171v-.836h-2.065l.003-.044a8.43 8.43 0 0 0 .02-.58 8.02 8.02 0 0 0-.517-2.866l-.019-.05 1.57-1.57-.592-.59L11.662 4.5h-.785zm-5 0v-.582a2.082 2.082 0 1 1 4.164 0V4.5H5.878zm5.697.837l.02.053c.283.753.447 1.61.447 2.528 0 1.61-.503 3.034-1.274 4.037-.77 1.001-1.771 1.545-2.808 1.545-1.036 0-2.037-.544-2.807-1.545-.772-1.003-1.275-2.427-1.275-4.037 0-.918.164-1.775.448-2.528l.02-.053h7.229z"
     id="path2"
     style="fill:#ff0000;fill-opacity:1" />
  <path
     fill-rule="evenodd"
     clip-rule="evenodd"
     d="m 9.8205,8.486 1.303,-1.303 -0.71,-0.71 -3.41,3.4200003 -1.38,-1.3800003 -0.71,0.71 1.73,1.73 h 0.71 l 1.65,-1.65 z"
     id="path2-1"
     sodipodi:nodetypes="cccccccccc"
     style="fill:#ff0000;fill-opacity:1" />
</svg>
