<?xml version="1.0" encoding="UTF-8" standalone="no"?>
<svg
   xmlns:dc="http://purl.org/dc/elements/1.1/"
   xmlns:cc="http://creativecommons.org/ns#"
   xmlns:rdf="http://www.w3.org/1999/02/22-rdf-syntax-ns#"
   xmlns:svg="http://www.w3.org/2000/svg"
   xmlns="http://www.w3.org/2000/svg"
   xmlns:sodipodi="http://sodipodi.sourceforge.net/DTD/sodipodi-0.dtd"
   xmlns:inkscape="http://www.inkscape.org/namespaces/inkscape"
   width="16"
   height="16"
   viewBox="0 0 16 16"
   fill="currentColor"
   version="1.1"
   id="svg4"
   sodipodi:docname="issue_closed.svg"
   inkscape:version="1.0.2-2 (e86c870879, 2021-01-15)">
  <metadata
     id="metadata10">
    <rdf:RDF>
      <cc:Work
         rdf:about="">
        <dc:format>image/svg+xml</dc:format>
        <dc:type
           rdf:resource="http://purl.org/dc/dcmitype/StillImage" />
        <dc:title />
      </cc:Work>
    </rdf:RDF>
  </metadata>
  <defs
     id="defs8" />
  <sodipodi:namedview
     pagecolor="#ffffff"
     bordercolor="#666666"
     borderopacity="1"
     objecttolerance="10"
     gridtolerance="10"
     guidetolerance="10"
     inkscape:pageopacity="0"
     inkscape:pageshadow="2"
     inkscape:window-width="3440"
     inkscape:window-height="1377"
     id="namedview6"
     showgrid="false"
     inkscape:zoom="45.254834"
     inkscape:cx="10.098444"
     inkscape:cy="7.864352"
     inkscape:window-x="-8"
     inkscape:window-y="-8"
     inkscape:window-maximized="1"
     inkscape:current-layer="svg4"
     inkscape:document-rotation="0" />
  <path
     fill-rule="evenodd"
     clip-rule="evenodd"
     d="M 4.0992858,2.1721172 C 7.3172826,0.03892408 11.668812,0.89806655 13.818706,4.0910602 15.9686,7.2840537 15.102739,11.601777 11.884742,13.73497 8.6670675,15.856147 4.3261977,14.993233 2.1803877,11.805864 0.03457777,8.6184948 0.89340239,4.3092075 4.1003638,2.1721172 Z M 4.6975867,12.845026 C 7.421222,14.707261 11.153851,13.998151 12.991593,11.269369 14.829336,8.5405869 14.061468,4.8474564 11.285363,3.0631308 4.751451,-1.1065783 -1.684558,8.4515284 4.6986646,12.845026 Z"
     id="path2"
     style="stroke-width:1.07382;fill:#ff0000;fill-opacity:1"
     sodipodi:nodetypes="cscscccsccc" />
  <path
     fill-rule="evenodd"
     clip-rule="evenodd"
     d="M 10.359721,7.6822402 12.066,5.8586615 11.136254,4.865 6.6708566,9.6513694 4.8637455,7.7200273 3.934,8.7136888 6.1994363,11.134864 H 7.1291818 L 9.2898586,8.8256507 Z"
     id="path2-6"
     sodipodi:nodetypes="cccccccccc"
     style="stroke-width:1.35376;fill:#ff0000;fill-opacity:1" />
</svg>
