<?xml version="1.0" encoding="UTF-8" standalone="no"?>
<svg
   xmlns:dc="http://purl.org/dc/elements/1.1/"
   xmlns:cc="http://creativecommons.org/ns#"
   xmlns:rdf="http://www.w3.org/1999/02/22-rdf-syntax-ns#"
   xmlns:svg="http://www.w3.org/2000/svg"
   xmlns="http://www.w3.org/2000/svg"
   id="svg4"
   version="1.1"
   fill="currentColor"
   viewBox="0 0 16 16"
   height="16"
   width="16">
  <defs
     id="defs10" />
  <metadata
     id="metadata10">
    <rdf:RDF>
      <cc:Work
         rdf:about="">
        <dc:format>image/svg+xml</dc:format>
        <dc:type
           rdf:resource="http://purl.org/dc/dcmitype/StillImage" />
      </cc:Work>
    </rdf:RDF>
  </metadata>
  <g
     transform="matrix(0.25,0,0,0.25,12,0)"
     id="layer1">
    <g
       id="g2488">
      <g
         transform="matrix(1,-1,1,1,-6.0000001,10.000002)"
         id="g2492">
        <g
           style="fill:#ff0000;fill-opacity:1"
           transform="rotate(-90,7.9999998,6.0000002)"
           id="g2553">
          <rect
             style="fill:#ff0000;fill-opacity:1;stroke:none;stroke-width:0.11097989;stroke-miterlimit:4;stroke-dasharray:none;stroke-opacity:1"
             id="rect2478"
             width="4"
             height="8.1999998"
             x="6"
             y="-7.7715612e-16" />
          <path
             style="fill:#ff0000;fill-opacity:1;stroke:none;stroke-width:0.1;stroke-miterlimit:4;stroke-dasharray:none;stroke-opacity:1"
             id="path2484"
             d="m 6.9921876,14.570312 -1.7320509,-3 -1.7320509,-3.0000004 3.4641017,-10e-8 3.4641015,0 -1.7320507,3.0000005 z"
             transform="matrix(1.1547005,0,0,1,-0.07388297,-0.57031109)" />
        </g>
      </g>
    </g>
  </g>
  <g
     transform="matrix(0.25,0,0,0.25,0,12)"
     id="layer1">
    <path
       transform="matrix(0.95283879,0,0,0.99470122,0,0.08478044)"
       d="M 13.804002,15.76968 8.5544674,13.156826 3.4260196,16 4.2887963,10.19998 -2.1462852e-7,6.201125 5.7827594,5.2293695 8.2605851,-0.08523237 10.97175,5.1142099 l 5.820177,0.71425 -4.107167,4.1851871 z"
       id="path3130"
       style="fill:#ffc500;fill-opacity:1;stroke:none;stroke-width:0.1;stroke-miterlimit:4;stroke-dasharray:none;stroke-opacity:1" />
  </g>
  <g
     transform="matrix(0.25,0,0,0.25,0,0)"
     id="layer1">
    <g
       id="g2488">
      <g
         transform="matrix(1,-1,1,1,-6.0000001,10.000002)"
         id="g2492">
        <rect
           y="1.9073487e-07"
           x="6"
           height="8.1999998"
           width="4"
           id="rect2478"
           style="fill:#00b700;fill-opacity:1;stroke:none;stroke-width:0.11097989;stroke-miterlimit:4;stroke-dasharray:none;stroke-opacity:1" />
        <path
           transform="matrix(1.1547005,0,0,1,-0.07388247,-0.57031155)"
           d="m 6.9921876,14.570312 -1.7320509,-3 -1.7320509,-3.0000004 3.4641017,-10e-8 3.4641015,0 -1.7320507,3.0000005 z"
           id="path2484"
           style="fill:#00b700;fill-opacity:1;stroke:none;stroke-width:0.1;stroke-miterlimit:4;stroke-dasharray:none;stroke-opacity:1" />
      </g>
    </g>
  </g>
  <g
     id="layer1"
     transform="matrix(0.8125,0,0,0.8125,1.5,1.5)">
    <defs
       id="defs8" />
    <path
       style="fill:#00b700;fill-opacity:1"
       id="path2"
       d="M10.877 4.5v-.582a2.918 2.918 0 1 0-5.836 0V4.5h-.833L2.545 2.829l-.593.59 1.611 1.619-.019.049a8.03 8.03 0 0 0-.503 2.831c0 .196.007.39.02.58l.003.045H1v.836h2.169l.006.034c.172.941.504 1.802.954 2.531l.034.055L2.2 13.962l.592.592 1.871-1.872.058.066c.868.992 2.002 1.589 3.238 1.589 1.218 0 2.336-.579 3.199-1.544l.057-.064 1.91 1.92.593-.591-1.996-2.006.035-.056c.467-.74.81-1.619.986-2.583l.006-.034h2.171v-.836h-2.065l.003-.044a8.43 8.43 0 0 0 .02-.58 8.02 8.02 0 0 0-.517-2.866l-.019-.05 1.57-1.57-.592-.59L11.662 4.5h-.785zm-5 0v-.582a2.082 2.082 0 1 1 4.164 0V4.5H5.878zm5.697.837l.02.053c.283.753.447 1.61.447 2.528 0 1.61-.503 3.034-1.274 4.037-.77 1.001-1.771 1.545-2.808 1.545-1.036 0-2.037-.544-2.807-1.545-.772-1.003-1.275-2.427-1.275-4.037 0-.918.164-1.775.448-2.528l.02-.053h7.229z"
       clip-rule="evenodd"
       fill-rule="evenodd" />
  </g>
</svg>
