<?xml version="1.0" encoding="UTF-8" standalone="no"?>
<svg
   xmlns:dc="http://purl.org/dc/elements/1.1/"
   xmlns:cc="http://creativecommons.org/ns#"
   xmlns:rdf="http://www.w3.org/1999/02/22-rdf-syntax-ns#"
   xmlns:svg="http://www.w3.org/2000/svg"
   xmlns="http://www.w3.org/2000/svg"
   id="svg4"
   version="1.1"
   fill="currentColor"
   viewBox="0 0 16 16"
   height="16"
   width="16">
  <defs
     id="defs11" />
  <metadata
     id="metadata10">
    <rdf:RDF>
      <cc:Work
         rdf:about="">
        <dc:format>image/svg+xml</dc:format>
        <dc:type
           rdf:resource="http://purl.org/dc/dcmitype/StillImage" />
        <dc:title />
      </cc:Work>
    </rdf:RDF>
  </metadata>
  <g
     transform="matrix(0.25,0,0,0.25,12,0)"
     id="layer1">
    <g
       id="g2488">
      <g
         transform="matrix(1,-1,1,1,-6.0000001,10.000002)"
         id="g2492">
        <g
           style="fill:#ff0000;fill-opacity:1"
           transform="rotate(-90,7.9999998,6.0000002)"
           id="g2553">
          <rect
             style="fill:#ff0000;fill-opacity:1;stroke:none;stroke-width:0.11097989;stroke-miterlimit:4;stroke-dasharray:none;stroke-opacity:1"
             id="rect2478"
             width="4"
             height="8.1999998"
             x="6"
             y="-7.7715612e-16" />
          <path
             style="fill:#ff0000;fill-opacity:1;stroke:none;stroke-width:0.1;stroke-miterlimit:4;stroke-dasharray:none;stroke-opacity:1"
             id="path2484"
             d="m 6.9921876,14.570312 -1.7320509,-3 -1.7320509,-3.0000004 3.4641017,-10e-8 3.4641015,0 -1.7320507,3.0000005 z"
             transform="matrix(1.1547005,0,0,1,-0.07388297,-0.57031109)" />
        </g>
      </g>
    </g>
  </g>
  <g
     transform="matrix(0.25,0,0,0.25,0,0)"
     id="layer1">
    <g
       id="g2488">
      <g
         transform="matrix(1,-1,1,1,-6.0000001,10.000002)"
         id="g2492">
        <rect
           y="1.9073487e-07"
           x="6"
           height="8.1999998"
           width="4"
           id="rect2478"
           style="fill:#00b700;fill-opacity:1;stroke:none;stroke-width:0.11097989;stroke-miterlimit:4;stroke-dasharray:none;stroke-opacity:1" />
        <path
           transform="matrix(1.1547005,0,0,1,-0.07388247,-0.57031155)"
           d="m 6.9921876,14.570312 -1.7320509,-3 -1.7320509,-3.0000004 3.4641017,-10e-8 3.4641015,0 -1.7320507,3.0000005 z"
           id="path2484"
           style="fill:#00b700;fill-opacity:1;stroke:none;stroke-width:0.1;stroke-miterlimit:4;stroke-dasharray:none;stroke-opacity:1" />
      </g>
    </g>
  </g>
  <g
     id="layer1"
     transform="matrix(0.8125,0,0,0.8125,1.5,1.5)">
    <defs
       id="defs8" />
    <path
       style="stroke-width:1.07382;fill:#ff0000;fill-opacity:1"
       id="path2"
       d="M 4.0992858,2.1721172 C 7.3172826,0.03892408 11.668812,0.89806655 13.818706,4.0910602 15.9686,7.2840537 15.102739,11.601777 11.884742,13.73497 8.6670675,15.856147 4.3261977,14.993233 2.1803877,11.805864 0.03457777,8.6184948 0.89340239,4.3092075 4.1003638,2.1721172 Z M 4.6975867,12.845026 C 7.421222,14.707261 11.153851,13.998151 12.991593,11.269369 14.829336,8.5405869 14.061468,4.8474564 11.285363,3.0631308 4.751451,-1.1065783 -1.684558,8.4515284 4.6986646,12.845026 Z"
       clip-rule="evenodd"
       fill-rule="evenodd" />
    <path
       style="stroke-width:1.35376;fill:#ff0000;fill-opacity:1"
       id="path2-6"
       d="M 10.359721,7.6822402 12.066,5.8586615 11.136254,4.865 6.6708566,9.6513694 4.8637455,7.7200273 3.934,8.7136888 6.1994363,11.134864 H 7.1291818 L 9.2898586,8.8256507 Z"
       clip-rule="evenodd"
       fill-rule="evenodd" />
  </g>
</svg>
