<?xml version="1.0" encoding="UTF-8" standalone="no"?>
<svg
   xmlns:dc="http://purl.org/dc/elements/1.1/"
   xmlns:cc="http://creativecommons.org/ns#"
   xmlns:rdf="http://www.w3.org/1999/02/22-rdf-syntax-ns#"
   xmlns:svg="http://www.w3.org/2000/svg"
   xmlns="http://www.w3.org/2000/svg"
   id="svg4"
   version="1.1"
   fill="currentColor"
   viewBox="0 0 16 16"
   height="16"
   width="16">
  <defs
     id="defs11" />
  <metadata
     id="metadata10">
    <rdf:RDF>
      <cc:Work
         rdf:about="">
        <dc:format>image/svg+xml</dc:format>
        <dc:type
           rdf:resource="http://purl.org/dc/dcmitype/StillImage" />
        <dc:title />
      </cc:Work>
    </rdf:RDF>
  </metadata>
  <g
     transform="matrix(0.25,0,0,0.25,12,0)"
     id="layer1">
    <g
       id="g2488">
      <g
         transform="matrix(1,-1,1,1,-6.0000001,10.000002)"
         id="g2492">
        <g
           style="fill:#ff0000;fill-opacity:1"
           transform="rotate(-90,7.9999998,6.0000002)"
           id="g2553">
          <rect
             style="fill:#ff0000;fill-opacity:1;stroke:none;stroke-width:0.11097989;stroke-miterlimit:4;stroke-dasharray:none;stroke-opacity:1"
             id="rect2478"
             width="4"
             height="8.1999998"
             x="6"
             y="-7.7715612e-16" />
          <path
             style="fill:#ff0000;fill-opacity:1;stroke:none;stroke-width:0.1;stroke-miterlimit:4;stroke-dasharray:none;stroke-opacity:1"
             id="path2484"
             d="m 6.9921876,14.570312 -1.7320509,-3 -1.7320509,-3.0000004 3.4641017,-10e-8 3.4641015,0 -1.7320507,3.0000005 z"
             transform="matrix(1.1547005,0,0,1,-0.07388297,-0.57031109)" />
        </g>
      </g>
    </g>
  </g>
  <g
     transform="matrix(0.25,0,0,0.25,0,12)"
     id="layer1">
    <path
       transform="matrix(0.95283879,0,0,0.99470122,0,0.08478044)"
       d="M 13.804002,15.76968 8.5544674,13.156826 3.4260196,16 4.2887963,10.19998 -2.1462852e-7,6.201125 5.7827594,5.2293695 8.2605851,-0.08523237 10.97175,5.1142099 l 5.820177,0.71425 -4.107167,4.1851871 z"
       id="path3130"
       style="fill:#ffc500;fill-opacity:1;stroke:none;stroke-width:0.1;stroke-miterlimit:4;stroke-dasharray:none;stroke-opacity:1" />
  </g>
  <g
     id="layer1"
     transform="matrix(0.8125,0,0,0.8125,1.5,1.5)">
    <defs
       id="defs8" />
    <path
       d="M 7.9824219 1 A 4.7922148 4.7922788 0 0 0 6.7089844 1.171875 C 6.2954539 1.2860281 5.9050085 1.4510337 5.5410156 1.6621094 A 4.9537501 4.9538163 0 0 0 4.5605469 2.4179688 C 4.2665526 2.7130439 4.012931 3.0404997 3.8007812 3.4023438 A 4.7728305 4.7728943 0 0 0 3.1367188 5.8457031 A 4.5089895 4.5090498 0 0 0 3.5195312 7.6992188 A 5.0495944 5.0496619 0 0 0 4.6015625 9.2460938 A 3.8294642 3.8295154 0 0 1 5.4375 10.447266 C 5.6334962 10.886648 5.7324219 11.363063 5.7324219 11.878906 L 5.7324219 13.601562 A 1.4032036 1.4032223 0 0 0 6.1425781 14.591797 A 1.3838193 1.3838378 0 0 0 7.1347656 15 L 8.8652344 15 A 1.3805886 1.3806071 0 0 0 9.4121094 14.890625 A 1.4042805 1.4042992 0 0 0 10.267578 13.601562 L 10.267578 11.878906 A 3.5322392 3.5322864 0 0 1 10.556641 10.447266 A 3.9425389 3.9425916 0 0 1 11.398438 9.2460938 A 5.0506713 5.0507388 0 0 0 12.482422 7.6992188 C 12.736571 7.128453 12.861328 6.5101607 12.861328 5.8457031 A 4.7792919 4.7793558 0 0 0 12.199219 3.4023438 A 4.8191373 4.8192017 0 0 0 10.451172 1.6621094 A 4.8202142 4.8202787 0 0 0 8 1 A 4.7922148 4.7922788 0 0 0 7.9824219 1 z M 8 2.0761719 A 3.78 3.78 0 0 1 11.779297 5.8574219 A 3.78 3.78 0 0 1 8 9.6367188 A 3.78 3.78 0 0 1 4.2207031 5.8574219 A 3.78 3.78 0 0 1 8 2.0761719 z M 6.8085938 11.230469 L 9.1914062 11.230469 L 9.1914062 13.601562 A 0.30799403 0.30799814 0 0 1 9.09375 13.830078 A 0.31122473 0.31122889 0 0 1 8.8652344 13.925781 L 7.1347656 13.925781 A 0.31230164 0.31230581 0 0 1 6.90625 13.830078 C 6.839482 13.763309 6.8085938 13.688792 6.8085938 13.601562 L 6.8085938 11.230469 z "
       style="stroke-width:1.07691;fill:#ff0000;fill-opacity:1"
       id="path2" />
    <path
       style="fill:#ff0000;fill-opacity:1"
       id="path2-2"
       d="M 9.8019999,5.622 11.105,4.319 l -0.71,-0.71 -3.41,3.42 -1.38,-1.38 -0.71,0.71 1.73,1.73 h 0.71 l 1.6499999,-1.65 z"
       clip-rule="evenodd"
       fill-rule="evenodd" />
  </g>
</svg>
